<svg xmlns="http://www.w3.org/2000/svg" width="20" height="13.657" viewBox="0 0 20 13.657">
  <g id="back-arrow" transform="translate(0 0)" fill="#d8d8d8" stroke-miterlimit="10">
    <path d="M 6.828299999237061 13.15705490112305 C 6.694590091705322 13.15705490112305 6.568929672241211 13.10502529144287 6.474449634552002 13.01055526733398 L 0.8179798722267151 7.353174686431885 C 0.8034198880195618 7.338644981384277 0.7898398637771606 7.323344707489014 0.7772098779678345 7.307294845581055 L 0.7398398518562317 7.25979471206665 L 0.6922298669815063 7.222564697265625 C 0.5700698494911194 7.127034664154053 0.4999998509883881 6.983335018157959 0.4999998509883881 6.828304767608643 C 0.4999998509883881 6.673184871673584 0.5701398849487305 6.529424667358398 0.6924298405647278 6.43387508392334 L 0.7401498556137085 6.396584987640381 L 0.7775998711585999 6.348984718322754 C 0.7902398705482483 6.332904815673828 0.8037998676300049 6.317605018615723 0.8178898692131042 6.303514957427979 L 6.474479675292969 0.6460348963737488 C 6.568559646606445 0.5521648526191711 6.694369792938232 0.500234842300415 6.828299999237061 0.500234842300415 C 6.96222972869873 0.500234842300415 7.088039875030518 0.5521648526191711 7.182549953460693 0.6464648842811584 C 7.276619911193848 0.7405348420143127 7.328649997711182 0.8661948442459106 7.328649997711182 0.9999048709869385 C 7.328649997711182 1.133614897727966 7.276619911193848 1.259274840354919 7.182149887084961 1.353754878044128 L 3.060409784317017 5.474824905395508 L 2.206699848175049 6.328404903411865 L 3.413939952850342 6.328404903411865 L 18.99990081787109 6.328404903411865 C 19.27554893493652 6.328404903411865 19.49979972839355 6.55265474319458 19.49979972839355 6.828304767608643 C 19.49979972839355 7.103954792022705 19.27554893493652 7.32820463180542 18.99990081787109 7.32820463180542 L 3.413939952850342 7.32820463180542 L 2.206699848175049 7.32820463180542 L 3.060409784317017 8.181784629821777 L 7.182169914245605 12.30288505554199 C 7.377259731292725 12.49797439575195 7.377259731292725 12.81543445587158 7.182149887084961 13.01055526733398 C 7.087669849395752 13.10502529144287 6.962009906768799 13.15705490112305 6.828299999237061 13.15705490112305 Z" stroke="none"/>
    <path d="M 6.828299999237061 12.65705490112305 L 6.828649997711182 12.65646457672119 L 2.706889867782593 8.535365104675293 L 2.53665566444397 8.365159034729004 L 6.827159881591797 12.65694522857666 C 6.827270030975342 12.65697479248047 6.827699661254883 12.65705490112305 6.828299999237061 12.65705490112305 M 6.828299999237061 13.65705490112305 C 6.572249889373779 13.65705490112305 6.316199779510498 13.55940532684326 6.120899677276611 13.36410522460938 L 0.4643998742103577 7.706705093383789 C 0.4355298578739166 7.677895069122314 0.4088398516178131 7.647715091705322 0.3842398524284363 7.616445064544678 C 0.1502698659896851 7.433495044708252 -1.358032193365943e-07 7.148614883422852 -1.358032193365943e-07 6.828304767608643 C -1.358032193365943e-07 6.50785493850708 0.1504498571157455 6.222815036773682 0.3845898509025574 6.039875030517578 C 0.4090898633003235 6.008724689483643 0.435669869184494 5.978624820709229 0.4643998742103577 5.949904918670654 L 6.120899677276611 0.2925048768520355 C 6.316199779510498 0.09765487164258957 6.572249889373779 0.0002298695326317102 6.828299999237061 0.0002298695326317102 C 7.084349632263184 0.0002298695326317102 7.340399742126465 0.09765487164258957 7.535699844360352 0.2925048768520355 C 7.926300048828125 0.6831048727035522 7.926300048828125 1.316704869270325 7.535699844360352 1.707304835319519 L 3.413939952850342 5.828404903411865 L 18.99990081787109 5.828404903411865 C 19.55249977111816 5.828404903411865 19.99979972839355 6.275704860687256 19.99979972839355 6.828304767608643 C 19.99979972839355 7.380904674530029 19.55249977111816 7.82820463180542 18.99990081787109 7.82820463180542 L 3.413939952850342 7.82820463180542 L 7.535699844360352 11.94930458068848 C 7.926300048828125 12.33990478515625 7.926300048828125 12.9735050201416 7.535699844360352 13.36410522460938 C 7.340399742126465 13.55940532684326 7.084349632263184 13.65705490112305 6.828299999237061 13.65705490112305 Z" stroke="none" fill="#3c4046"/>
  </g>
</svg>
