<svg xmlns="http://www.w3.org/2000/svg" width="24" height="21.555" viewBox="0 0 24 21.555">
  <path id="heart-icon" d="M10.576,19.4l-.029-.025c-.937-.824-1.817-1.58-2.668-2.309a50.183,50.183,0,0,1-5.63-5.292A8.241,8.241,0,0,1,0,6.377,6.733,6.733,0,0,1,1.6,1.922a5.522,5.522,0,0,1,8.848.64A8.459,8.459,0,0,1,11,3.455a8.474,8.474,0,0,1,.548-.894,5.521,5.521,0,0,1,8.847-.641A6.737,6.737,0,0,1,22,6.377a8.241,8.241,0,0,1-2.249,5.391,50.165,50.165,0,0,1-5.629,5.292c-.851.73-1.732,1.485-2.669,2.309l-.028.025a.642.642,0,0,1-.849,0Z" transform="translate(1 1)" fill="none" stroke="#cfcfcf" stroke-miterlimit="10" stroke-width="2"/>
</svg>
