<svg xmlns="http://www.w3.org/2000/svg" width="28.562" height="36.058" viewBox="0 0 28.562 36.058">
  <g id="Group_7" data-name="Group 7" transform="translate(200.018 -187.833)">
    <path id="Path_14" data-name="Path 14" d="M-181.535,196.75c0-.429,0-.806,0-1.183a3.582,3.582,0,0,1,3.037-3.554,3.59,3.59,0,0,1,4.063,2.828,3.83,3.83,0,0,1,.077.782q0,5.528,0,11.056,0,2.833-.005,5.665a.445.445,0,0,0,.184.385,5.81,5.81,0,0,1,2.206,4.209,5.841,5.841,0,0,1-2.1,5.028,5.664,5.664,0,0,1-3.323,1.4,5.848,5.848,0,0,1-4.811-1.754,5.783,5.783,0,0,1-1.609-2.991c-.045-.216-.049-.218-.256-.138a11.129,11.129,0,0,1-4.654.73,11.2,11.2,0,0,1-6.327-2.348,11.3,11.3,0,0,1-3.7-4.94,11.5,11.5,0,0,1-.753-3.588,9.606,9.606,0,0,1,.713-3.881,36.168,36.168,0,0,1,3.352-6.507c1.22-1.964,2.548-3.853,3.923-5.71.906-1.223,1.836-2.426,2.8-3.6a.749.749,0,0,1,1.2,0q1.644,2.019,3.182,4.12,1.4,1.916,2.716,3.894C-181.6,196.667-181.586,196.685-181.535,196.75Zm0,9.325h0q0-3.126,0-6.252a.7.7,0,0,0-.107-.378c-.678-1.133-1.411-2.23-2.156-3.32-1.318-1.928-2.712-3.8-4.161-5.63-.155-.2-.158-.2-.32.006q-1.4,1.748-2.7,3.562a73.46,73.46,0,0,0-4.362,6.648,27.737,27.737,0,0,0-2.03,4.2,8.306,8.306,0,0,0-.618,3.47,9.938,9.938,0,0,0,1.071,3.93,9.8,9.8,0,0,0,5.567,4.855,9.628,9.628,0,0,0,4.4.479,9.9,9.9,0,0,0,2.8-.758.41.41,0,0,0,.265-.366,5.963,5.963,0,0,1,2.161-3.8.465.465,0,0,0,.191-.4Q-181.538,209.2-181.533,206.074Zm5.654-1.9h0q0-4.18,0-8.36a3.651,3.651,0,0,0-.02-.549,2.041,2.041,0,0,0-1.875-1.772,2.059,2.059,0,0,0-2.065,1.2,2.637,2.637,0,0,0-.2,1.109c-.007.391.016.782.015,1.172,0,.739-.03,1.477-.012,2.215.017.714.006,1.429,0,2.142,0,.732.027,1.465-.008,2.2-.012.262.016.525.015.787,0,.738-.016,1.477-.016,2.215,0,.708.033,1.416.012,2.124s.025,1.441-.011,2.161c-.014.28.023.562.012.842a8.74,8.74,0,0,0,0,.933,1.054,1.054,0,0,1-.422,1.076,4.464,4.464,0,0,0-1.131,6.358,4.306,4.306,0,0,0,3.3,1.839,4.317,4.317,0,0,0,3.479-1.292,4.31,4.31,0,0,0,1.319-3.558,4.3,4.3,0,0,0-1.94-3.317,1,1,0,0,1-.466-.91C-175.876,209.917-175.88,207.045-175.88,204.173Z" transform="translate(0)" fill="#0c9869" stroke="#0c9869" stroke-width="1"/>
    <path id="Path_15" data-name="Path 15" d="M-96.328,783.648a.915.915,0,0,1-.387-.086,7.752,7.752,0,0,1-4.7-4.537.747.747,0,0,1,.291-.975.75.75,0,0,1,.965.149,1.064,1.064,0,0,1,.167.3,6.147,6.147,0,0,0,3.834,3.638.784.784,0,0,1,.42,1.25A.713.713,0,0,1-96.328,783.648Z" transform="translate(-93.434 -568.983)" fill="#0c9869" stroke="#0c9869" stroke-width="1"/>
    <path id="Path_16" data-name="Path 16" d="M307.409,514.492q0,3.272,0,6.544a.3.3,0,0,0,.212.325,3.093,3.093,0,0,1,1.87,3.258,3.131,3.131,0,0,1-6.2.08,3.1,3.1,0,0,1,1.769-3.294.421.421,0,0,0,.291-.447q-.013-5.6-.006-11.2c0-.581-.006-1.161,0-1.741a1.041,1.041,0,0,1,1.069-1.1,1.017,1.017,0,0,1,1,1.015c0,1.375,0,2.75,0,4.124q0,1.219,0,2.438Z" transform="translate(-484.333 -306.899)" fill="#0c9869"/>
  </g>
</svg>
