<svg xmlns="http://www.w3.org/2000/svg" width="28.629" height="31" viewBox="0 0 28.629 31">
  <g id="Group_8" data-name="Group 8" transform="translate(-975.689 -84.904)">
    <g id="Group_6" data-name="Group 6" transform="translate(976.189 85.404)">
      <g id="Group_5" data-name="Group 5" transform="translate(0 0)">
        <path id="Path_12" data-name="Path 12" d="M977.565,85.4a1.077,1.077,0,0,1,.849.846,1.776,1.776,0,0,1,.018.381q0,3.712,0,7.423c0,.245,0,.245.239.245,1.376,0,2.752,0,4.128,0a1.092,1.092,0,0,1,1.043.815,1.133,1.133,0,0,1-1.169,1.43c-1.259,0-2.518,0-3.776,0-.112,0-.224,0-.336,0-.089,0-.134.034-.128.127,0,.036,0,.071,0,.107q0,4.86,0,9.719c0,.237,0,.237.231.237h3.975a1.188,1.188,0,0,1,.96.386,1.072,1.072,0,0,1,.19,1.185,1.024,1.024,0,0,1-.987.674c-1.381.009-2.762,0-4.143,0-.226,0-.227,0-.227.227,0,1.648-.014,3.3.007,4.944a1.179,1.179,0,0,1-.906,1.245h-.459a1.2,1.2,0,0,1-.887-.98V86.353a1.108,1.108,0,0,1,.887-.949Z" transform="translate(-976.189 -85.404)" fill="#0c9869" stroke="#0c9869" stroke-width="1"/>
        <path id="Path_13" data-name="Path 13" d="M1284.394,216.4a9.28,9.28,0,0,1,1.2-4.545c.5-.911.966-1.842,1.491-2.74,1.154-1.974,2.4-3.884,3.719-5.754.578-.822,1.164-1.638,1.767-2.441a1.119,1.119,0,0,1,1.866.03c2,2.82,3.92,5.7,5.683,8.672.528.891,1.04,1.79,1.512,2.711a8.5,8.5,0,0,1,.916,3.23,8.931,8.931,0,0,1-2.764,7.4,8.609,8.609,0,0,1-4.966,2.438,9.127,9.127,0,0,1-10.357-7.817q-.021-.151-.034-.3A7.384,7.384,0,0,1,1284.394,216.4Zm2.245.251a6.245,6.245,0,0,0,.225,1.5,6.862,6.862,0,0,0,6.34,5.106,6.686,6.686,0,0,0,2.408-.331,6.862,6.862,0,0,0,4.726-6.746,7.011,7.011,0,0,0-.867-3.138c-1.115-2.059-2.339-4.054-3.613-6.017q-1.112-1.713-2.281-3.387c-.1-.15-.105-.148-.214,0-.228.32-.458.638-.683.959a76.234,76.234,0,0,0-4.117,6.459c-.337.6-.625,1.228-.966,1.824A7.276,7.276,0,0,0,1286.639,216.646Z" transform="translate(-1274.956 -196.907)" fill="#0c9869" stroke="#0c9869" stroke-width="1"/>
      </g>
    </g>
  </g>
</svg>
