<svg xmlns="http://www.w3.org/2000/svg" width="39.481" height="39.481" viewBox="0 0 39.481 39.481">
  <g id="Group_9" data-name="Group 9" transform="translate(1081.365 -74.29)">
    <path id="Path_3" data-name="Path 3" d="M-665.038,306.4a2.049,2.049,0,0,1-2.213,1.414c-1.244-.022-2.488.013-3.732-.008a2.024,2.024,0,0,1-1.731-3.091,1.8,1.8,0,0,1,1.615-.948c1.4-.025,2.8-.028,4.193,0a1.914,1.914,0,0,1,1.867,1.4Z" transform="translate(-376.846 -211.741)" fill="#0c9869"/>
    <path id="Path_4" data-name="Path 4" d="M-850.422,490.484a2.053,2.053,0,0,1-1.414-2.213c.024-1.231,0-2.462.007-3.694a1.851,1.851,0,0,1,1.059-1.819,2.11,2.11,0,0,1,2.255.2,1.792,1.792,0,0,1,.727,1.5c.021,1.385.024,2.771,0,4.155a1.908,1.908,0,0,1-1.4,1.866Z" transform="translate(-211.805 -376.713)" fill="#0c9869"/>
    <path id="Path_5" data-name="Path 5" d="M-943.939,202.012a9.815,9.815,0,0,1,9.887,9.969,9.891,9.891,0,0,1-10.048,9.831,9.872,9.872,0,0,1-9.766-10.258A9.805,9.805,0,0,1-943.939,202.012Zm-5.871,9.9a5.742,5.742,0,0,0,5.957,5.845,5.757,5.757,0,0,0,5.748-5.949,5.774,5.774,0,0,0-6.005-5.766A5.73,5.73,0,0,0-949.81,211.914Z" transform="translate(-117.65 -117.858)" fill="#0c9869"/>
    <path id="Path_6" data-name="Path 6" d="M-851.8,78.251c0-.668-.011-1.335,0-2a1.882,1.882,0,0,1,2.084-1.957,1.868,1.868,0,0,1,1.961,1.964q.017,2,0,4.005a1.954,1.954,0,0,1-1.993,2.011,1.935,1.935,0,0,1-2.055-1.98C-851.807,79.612-851.8,78.931-851.8,78.251Z" transform="translate(-211.838)" fill="#0c9869"/>
    <path id="Path_7" data-name="Path 7" d="M-1077.363,303.837c.667,0,1.335-.01,2,0a1.931,1.931,0,0,1,1.976,2.019,1.952,1.952,0,0,1-1.976,2.027q-2.041.021-4.082,0a1.861,1.861,0,0,1-1.922-1.924,1.879,1.879,0,0,1,1.884-2.115c.705-.024,1.412,0,2.118,0Z" transform="translate(0 -211.817)" fill="#0c9869"/>
    <path id="Path_8" data-name="Path 8" d="M-1008.481,145.118a2.2,2.2,0,0,1-1.332,2.129,1.979,1.979,0,0,1-2.174-.544q-1.32-1.424-2.652-2.838a1.93,1.93,0,0,1-.553-2.036,2.01,2.01,0,0,1,1.661-1.426,1.769,1.769,0,0,1,1.617.532c.992,1.02,1.956,2.066,2.918,3.115A1.857,1.857,0,0,1-1008.481,145.118Z" transform="translate(-60.969 -60.982)" fill="#0c9869"/>
    <path id="Path_9" data-name="Path 9" d="M-719.244,143.092a1.991,1.991,0,0,1,1.773,1.152,1.767,1.767,0,0,1-.245,2.081c-.635.72-1.337,1.381-2.012,2.065-.27.274-.534.556-.82.812a2.045,2.045,0,0,1-3.479-.983,1.729,1.729,0,0,1,.409-1.58c.984-1.081,2.029-2.1,3.094-3.105A1.747,1.747,0,0,1-719.244,143.092Z" transform="translate(-329.705 -63.489)" fill="#0c9869"/>
    <path id="Path_10" data-name="Path 10" d="M-719.09,435.884a1.958,1.958,0,0,1-1.476-.553q-1.439-1.419-2.854-2.862a1.922,1.922,0,0,1,.007-2.737,1.93,1.93,0,0,1,2.736-.148q1.53,1.435,2.97,2.966a1.8,1.8,0,0,1,.33,2.143A1.958,1.958,0,0,1-719.09,435.884Z" transform="translate(-329.782 -327.399)" fill="#0c9869"/>
    <path id="Path_11" data-name="Path 11" d="M-1013.464,436.532a1.985,1.985,0,0,1-1.792-1.125,1.771,1.771,0,0,1,.236-2.116,31.3,31.3,0,0,1,2.932-2.939,2.007,2.007,0,0,1,3.378,1.053,1.763,1.763,0,0,1-.493,1.664c-.964.994-1.947,1.97-2.936,2.939A1.73,1.73,0,0,1-1013.464,436.532Z" transform="translate(-60.778 -328.048)" fill="#0c9869"/>
  </g>
</svg>
